<svg xmlns="http://www.w3.org/2000/svg" width="1159.22998046875" height="442.9809875488281" version="1.1" style=""><rect id="backgroundrect" width="100%" height="100%" x="0" y="0" fill="none" stroke="none"/>

 <g style="" class="currentLayer">
  <title>Layer 1</title>
  <g id="svg_1" enable-background="new">
   <g data-name="Ebene 1" id="Layer-1">
    <clipPath id="cp0">
     <path id="svg_2" d="m0,-0.00001l1159.229,0l0,442.981l-1159.229,0l0,-442.981z"/>
    </clipPath>
    <g id="svg_3" clip-path="url(#cp0)">
     <path id="svg_4" fill="#006ab3" d="m629.88867,162.94247l0,75.451c0,44.976 -33.694,75.451 -75.256,75.451c-41.564,0 -75.259,-30.475 -75.259,-75.451l0,-75.451l38.137,0c0,13.714 0.002,69.366 0.002,72.17c0,23.316 16.62,39.262 37.12,39.262c20.5,0 37.119,-15.946 37.119,-39.262l0,-72.17l38.137,0z"/>
     <path id="svg_5" fill="#006ab3" d="m172.03419,309.95129l-38.136,0l0,-195.239l38.136,0l0,53.498c10.961,-5.892 23.61,-9.159 37.122,-9.159c41.562,0 75.256,30.476 75.256,75.452l0,75.448l-38.136,0l0,-72.17c0,-23.314 -16.619,-39.259 -37.12,-39.259c-20.5,0 -37.12,15.945 -37.12,39.259l-0.002,72.17z"/>
     <path id="svg_6" fill="#006ab3" d="m345.40921,309.95129l-38.139,0l0,-195.239l38.137,0l0,53.498c10.96,-5.892 23.61,-9.159 37.122,-9.159c41.562,0 75.256,30.476 75.256,75.452l0,75.448l-38.136,0l0,-72.17c0,-23.314 -16.62,-39.259 -37.12,-39.259c-20.5,0 -37.12,15.945 -37.12,39.259l0,72.17z"/>
     <path id="svg_7" d="m711.77338,285.31458c-0.805,-2.04 -1.956,-3.729 -3.454,-5.066c-1.501,-1.337 -3.322,-2.341 -5.466,-3.009c-2.143,-0.669 -4.536,-1.004 -7.179,-1.004c-1.108,0 -1.982,0.01 -2.626,0.026c-0.643,0.02 -1.23,0.036 -1.767,0.053c-0.535,0.02 -1.125,0.036 -1.769,0.053c-0.643,0.019 -1.517,0.046 -2.626,0.08l0.181,33.563c1.036,0 2.312,0.018 3.83,0.054c1.518,0.033 3.153,0.053 4.902,0.053c1.787,0 3.699,-0.229 5.734,-0.687c2.036,-0.458 3.912,-1.301 5.625,-2.534c1.715,-1.231 3.143,-2.956 4.288,-5.172c1.141,-2.217 1.713,-5.086 1.713,-8.605c0,-2.743 -0.581,-5.765 -1.386,-7.805m-4.4,14.88c-0.68,1.829 -1.608,3.271 -2.786,4.327c-1.177,1.058 -2.537,1.787 -4.071,2.191c-1.537,0.406 -3.163,0.608 -4.876,0.608c-0.679,0 -1.358,-0.02 -2.035,-0.053c-0.68,-0.036 -1.431,-0.106 -2.253,-0.212l-0.178,-28.074c0.608,-0.036 1.222,-0.053 1.848,-0.053l1.795,0c4.678,0 8.079,1.152 10.206,3.456c2.125,2.306 3.368,6.339 3.368,10.841c0,2.817 -0.34,5.139 -1.018,6.969m13.126,-13.355l0,14.57c0,1.23 0.052,2.408 0.161,3.536c0.106,1.125 0.428,2.11 0.964,2.956c0.535,0.843 1.346,1.522 2.437,2.03c1.089,0.511 2.6,0.767 4.527,0.767c1.214,0 2.277,-0.186 3.187,-0.555c0.913,-0.368 1.679,-0.8 2.306,-1.293c0.624,-0.492 1.115,-0.985 1.471,-1.477c0.357,-0.494 0.626,-0.863 0.805,-1.111l0.535,4.014l4.018,-0.371c-0.036,-0.176 -0.079,-0.482 -0.133,-0.923c-0.053,-0.44 -0.108,-0.932 -0.161,-1.479c-0.053,-0.544 -0.099,-1.125 -0.135,-1.742c-0.034,-0.614 -0.053,-1.187 -0.053,-1.715l0,-17.207l-4.177,0l0,12.984c0,1.055 -0.171,2.06 -0.511,3.009c-0.339,0.952 -0.802,1.778 -1.392,2.481c-0.591,0.704 -1.287,1.258 -2.089,1.662c-0.804,0.405 -1.688,0.608 -2.652,0.608c-1.072,0 -1.939,-0.133 -2.6,-0.396c-0.66,-0.265 -1.161,-0.66 -1.501,-1.187c-0.338,-0.528 -0.56,-1.178 -0.669,-1.954c-0.106,-0.773 -0.159,-1.652 -0.159,-2.637l0,-14.57l-4.179,0zm16.633,-9.819c-0.481,-0.475 -1.062,-0.713 -1.739,-0.713c-0.715,0 -1.306,0.238 -1.767,0.713c-0.466,0.475 -0.697,1.028 -0.697,1.662c0,0.634 0.231,1.188 0.697,1.665c0.461,0.475 1.052,0.71 1.767,0.71c0.677,0 1.258,-0.235 1.739,-0.71c0.485,-0.477 0.726,-1.031 0.726,-1.665c0,-0.634 -0.241,-1.187 -0.726,-1.662m-9.883,0c-0.465,-0.475 -1.053,-0.713 -1.769,-0.713c-0.679,0 -1.257,0.238 -1.741,0.713c-0.482,0.475 -0.723,1.028 -0.723,1.662c0,0.634 0.241,1.188 0.723,1.665c0.484,0.475 1.062,0.71 1.741,0.71c0.716,0 1.304,-0.235 1.769,-0.71c0.464,-0.477 0.696,-1.031 0.696,-1.665c0,-0.634 -0.232,-1.187 -0.696,-1.662m36.457,23.41c-0.446,-0.79 -1.017,-1.47 -1.713,-2.03c-0.697,-0.565 -1.457,-1.005 -2.279,-1.32c-0.821,-0.319 -1.624,-0.581 -2.409,-0.793c-1.465,-0.385 -2.652,-0.932 -3.562,-1.636c-0.911,-0.703 -1.366,-1.654 -1.366,-2.85c0,-0.915 0.399,-1.681 1.204,-2.296c0.804,-0.616 1.831,-0.924 3.081,-0.924c1.32,0 2.348,0.246 3.081,0.739c0.73,0.494 1.366,1.002 1.901,1.53l2.035,-2.585c-0.571,-0.494 -1.402,-0.969 -2.491,-1.426c-1.089,-0.458 -2.544,-0.687 -4.367,-0.687c-1.106,0 -2.161,0.133 -3.16,0.395c-1,0.265 -1.884,0.661 -2.653,1.191c-0.768,0.527 -1.382,1.194 -1.847,2.004c-0.465,0.809 -0.697,1.742 -0.697,2.797c0,1.233 0.214,2.261 0.643,3.088c0.43,0.829 0.983,1.515 1.66,2.059c0.68,0.545 1.412,0.969 2.197,1.268c0.786,0.298 1.538,0.553 2.25,0.763c1.501,0.424 2.705,0.942 3.616,1.559c0.913,0.616 1.369,1.645 1.369,3.088c0,1.231 -0.369,2.173 -1.099,2.823c-0.732,0.65 -1.778,0.976 -3.135,0.976c-0.714,0 -1.384,-0.113 -2.008,-0.342c-0.626,-0.229 -1.207,-0.521 -1.742,-0.872c-0.537,-0.352 -1.009,-0.713 -1.421,-1.081c-0.41,-0.369 -0.74,-0.714 -0.991,-1.03l-2.035,3.219c2.25,1.761 4.965,2.641 8.143,2.641c1.179,0 2.286,-0.159 3.321,-0.475c1.036,-0.318 1.93,-0.783 2.679,-1.4c0.752,-0.614 1.349,-1.38 1.795,-2.296c0.448,-0.915 0.67,-1.97 0.67,-3.167c0,-1.161 -0.222,-2.137 -0.67,-2.93m22.34,0c-0.445,-0.79 -1.016,-1.47 -1.714,-2.03c-0.697,-0.565 -1.455,-1.005 -2.277,-1.32c-0.821,-0.319 -1.626,-0.581 -2.409,-0.793c-1.467,-0.385 -2.652,-0.932 -3.562,-1.636c-0.914,-0.703 -1.37,-1.654 -1.37,-2.85c0,-0.915 0.403,-1.681 1.207,-2.296c0.803,-0.616 1.83,-0.924 3.081,-0.924c1.321,0 2.347,0.246 3.08,0.739c0.732,0.494 1.368,1.002 1.903,1.53l2.035,-2.585c-0.571,-0.494 -1.402,-0.969 -2.491,-1.426c-1.091,-0.458 -2.546,-0.687 -4.367,-0.687c-1.106,0 -2.161,0.133 -3.16,0.395c-1,0.265 -1.884,0.661 -2.653,1.191c-0.768,0.527 -1.383,1.194 -1.847,2.004c-0.465,0.809 -0.697,1.742 -0.697,2.797c0,1.233 0.214,2.261 0.643,3.088c0.429,0.829 0.98,1.515 1.66,2.059c0.68,0.545 1.412,0.969 2.197,1.268c0.785,0.298 1.534,0.553 2.25,0.763c1.501,0.424 2.705,0.942 3.615,1.559c0.912,0.616 1.367,1.645 1.367,3.088c0,1.231 -0.367,2.173 -1.096,2.823c-0.735,0.65 -1.778,0.976 -3.137,0.976c-0.713,0 -1.383,-0.113 -2.007,-0.342c-0.626,-0.229 -1.207,-0.521 -1.741,-0.872c-0.538,-0.352 -1.01,-0.713 -1.422,-1.081c-0.409,-0.369 -0.742,-0.714 -0.99,-1.03l-2.035,3.219c2.25,1.761 4.963,2.641 8.143,2.641c1.179,0 2.286,-0.159 3.321,-0.475c1.036,-0.318 1.929,-0.783 2.679,-1.4c0.751,-0.614 1.349,-1.38 1.794,-2.296c0.447,-0.915 0.67,-1.97 0.67,-3.167c0,-1.161 -0.223,-2.137 -0.67,-2.93m26.654,-1.294l0,-2.322c0,-1.301 -0.153,-2.594 -0.456,-3.878c-0.303,-1.284 -0.812,-2.429 -1.528,-3.431c-0.713,-1.003 -1.669,-1.813 -2.864,-2.427c-1.197,-0.618 -2.705,-0.926 -4.528,-0.926c-1.498,0 -2.901,0.299 -4.206,0.899c-1.304,0.597 -2.436,1.433 -3.402,2.505c-0.964,1.074 -1.722,2.359 -2.276,3.855c-0.555,1.496 -0.831,3.158 -0.831,4.989c0,4.047 0.946,7.106 2.84,9.183c1.893,2.076 4.697,3.115 8.412,3.115c1.927,0 3.623,-0.389 5.09,-1.162c1.463,-0.773 2.838,-1.901 4.124,-3.377l-1.659,-1.692c-1.574,1.373 -2.92,2.273 -4.047,2.694c-1.125,0.422 -2.222,0.633 -3.293,0.633c-2.359,0 -4.127,-0.747 -5.305,-2.243c-1.179,-1.495 -1.841,-3.634 -1.982,-6.415l15.911,0zm-5.543,-8.496c0.91,1.265 1.365,2.956 1.365,5.067l0,0.792l-11.625,0c0.142,-1.022 0.393,-1.997 0.749,-2.929c0.356,-0.933 0.812,-1.761 1.365,-2.482c0.555,-0.72 1.215,-1.294 1.983,-1.714c0.768,-0.425 1.633,-0.634 2.599,-0.634c1.462,0 2.651,0.634 3.564,1.9m17.435,-16.13l-4.232,0l0,35.5l4.232,0l0,-35.5zm24.48,28.587c-0.537,1.267 -1.188,2.242 -1.956,2.929c-0.768,0.686 -1.572,1.144 -2.411,1.371c-0.838,0.231 -1.544,0.345 -2.116,0.345c-1.071,0 -2.001,-0.239 -2.787,-0.713c-0.785,-0.475 -1.437,-1.135 -1.953,-1.981c-0.52,-0.842 -0.903,-1.845 -1.154,-3.008c-0.25,-1.162 -0.373,-2.41 -0.373,-3.747c0,-1.373 0.159,-2.63 0.481,-3.774c0.321,-1.142 0.777,-2.12 1.366,-2.93c0.59,-0.809 1.294,-1.433 2.116,-1.874c0.821,-0.438 1.715,-0.66 2.678,-0.66c0.93,0 1.814,0.169 2.653,0.501c0.841,0.335 1.573,0.872 2.196,1.612c0.624,0.737 1.125,1.671 1.501,2.796c0.376,1.128 0.562,2.482 0.562,4.065c0,2.112 -0.268,3.801 -0.803,5.068m1.072,7.179l4.019,-0.371c-0.036,-0.176 -0.082,-0.482 -0.135,-0.923c-0.054,-0.44 -0.107,-0.932 -0.162,-1.479c-0.053,-0.544 -0.099,-1.125 -0.132,-1.742c-0.036,-0.614 -0.054,-1.187 -0.054,-1.715l0,-29.536l-3.858,0l0,15.654c-0.571,-1.089 -1.491,-2.032 -2.759,-2.824c-1.269,-0.793 -2.761,-1.188 -4.474,-1.188c-1.463,0 -2.839,0.266 -4.126,0.793c-1.284,0.527 -2.409,1.31 -3.375,2.348c-0.963,1.039 -1.732,2.342 -2.302,3.906c-0.572,1.565 -0.859,3.37 -0.859,5.41c0,1.655 0.205,3.211 0.617,4.671c0.41,1.463 1.037,2.746 1.875,3.854c0.838,1.109 1.91,1.981 3.215,2.615c1.304,0.63 2.848,0.949 4.633,0.949c1.145,0 2.134,-0.159 2.975,-0.475c0.839,-0.318 1.553,-0.704 2.141,-1.161c0.591,-0.458 1.063,-0.942 1.422,-1.453c0.357,-0.508 0.624,-0.959 0.802,-1.347l0.537,4.014zm32.681,-16.972c-0.502,-1.495 -1.234,-2.769 -2.198,-3.825c-0.963,-1.058 -2.17,-1.874 -3.616,-2.455c-1.447,-0.58 -3.1,-0.872 -4.955,-0.872c-1.859,0 -3.503,0.292 -4.93,0.872c-1.429,0.581 -2.634,1.397 -3.617,2.455c-0.982,1.056 -1.722,2.33 -2.223,3.825c-0.501,1.496 -0.749,3.158 -0.749,4.989c0,1.901 0.294,3.617 0.883,5.146c0.591,1.532 1.403,2.833 2.439,3.907c1.035,1.072 2.257,1.899 3.668,2.48c1.412,0.58 2.92,0.872 4.529,0.872c1.607,0 3.115,-0.292 4.527,-0.872c1.409,-0.581 2.632,-1.408 3.669,-2.48c1.036,-1.074 1.85,-2.375 2.437,-3.907c0.591,-1.529 0.885,-3.245 0.885,-5.146c0,-1.831 -0.251,-3.493 -0.749,-4.989m-5.599,11.744c-1.233,1.725 -2.956,2.587 -5.17,2.587c-2.216,0 -3.938,-0.862 -5.172,-2.587c-1.231,-1.722 -1.847,-4.01 -1.847,-6.86c0,-2.816 0.606,-5.069 1.821,-6.758c1.214,-1.688 2.946,-2.531 5.198,-2.531c2.25,0 3.983,0.843 5.196,2.531c1.214,1.689 1.822,3.942 1.822,6.758c0,2.85 -0.617,5.138 -1.848,6.86m13.42,4.962l3.963,0l0,-11.135c0,-0.774 0.026,-1.55 0.082,-2.323c0.053,-0.773 0.169,-1.513 0.347,-2.218c0.392,-1.441 0.973,-2.648 1.742,-3.617c0.768,-0.966 1.633,-1.45 2.598,-1.45c1.608,0 2.465,0.862 2.571,2.587l3.483,-1.214c-0.036,-0.775 -0.197,-1.443 -0.481,-2.007c-0.287,-0.56 -0.644,-1.011 -1.073,-1.346c-0.428,-0.332 -0.903,-0.58 -1.42,-0.74c-0.519,-0.156 -1.01,-0.236 -1.472,-0.236c-1.393,0 -2.609,0.388 -3.643,1.161c-1.038,0.774 -1.913,1.812 -2.626,3.115l-0.537,-4.013l-4.018,0.371c0.036,0.176 0.082,0.484 0.135,0.923c0.053,0.44 0.106,0.941 0.162,1.506c0.052,0.563 0.095,1.143 0.131,1.741c0.037,0.597 0.056,1.161 0.056,1.688l0,17.207zm37.486,-34.655c-0.464,-0.281 -1.187,-0.537 -2.171,-0.766c-0.982,-0.228 -2.044,-0.341 -3.186,-0.341c-1.573,0 -2.982,0.281 -4.232,0.842c-1.251,0.564 -2.323,1.533 -3.217,2.904c-0.677,1.02 -1.089,2.138 -1.231,3.352c-0.142,1.214 -0.215,1.639 -0.215,2.697l0,2.796l-4.232,0l0,2.64l4.232,0l0,20.531l4.019,0l0,-20.531l6.482,0l0,-2.64l-6.482,0l0,-2.64c0,-0.879 0.036,-1.101 0.108,-2.089c0.07,-0.983 0.248,-1.871 0.536,-2.664c0.284,-0.793 0.705,-1.452 1.259,-1.981c0.551,-0.527 1.329,-0.79 2.329,-0.79c1.037,0 1.93,0.176 2.679,0.528c0.749,0.352 1.376,0.72 1.874,1.108l1.448,-2.956z"/>
     <path id="svg_8" d="m712.58691,219.78429l-4.151,0l0,20.27c0,2.182 -0.221,3.967 -0.664,5.357c-0.444,1.39 -1.056,2.49 -1.836,3.298c-0.781,0.811 -1.694,1.365 -2.74,1.664c-1.047,0.299 -2.172,0.448 -3.38,0.448c-1.24,0 -2.384,-0.149 -3.429,-0.448c-1.048,-0.299 -1.951,-0.853 -2.715,-1.664c-0.764,-0.808 -1.366,-1.908 -1.81,-3.298c-0.443,-1.39 -0.665,-3.175 -0.665,-5.357l0,-20.27l-4.309,0l0,20.638c0,4.856 1.082,8.306 3.245,10.346c2.163,2.04 5.391,3.062 9.683,3.062c4.293,0 7.495,-1.022 9.605,-3.062c2.11,-2.04 3.166,-5.49 3.166,-10.346l0,-20.638zm28.623,32.938l0,-14.57c0,-1.23 -0.053,-2.408 -0.159,-3.536c-0.106,-1.125 -0.426,-2.11 -0.956,-2.956c-0.532,-0.845 -1.34,-1.522 -2.421,-2.033c-1.084,-0.508 -2.583,-0.763 -4.498,-0.763c-1.204,0 -2.26,0.183 -3.165,0.554c-0.903,0.368 -1.667,0.8 -2.289,1.294c-0.619,0.491 -1.115,0.984 -1.489,1.476c-0.373,0.493 -0.63,0.863 -0.77,1.108l-0.533,-4.011l-3.991,0.369c0.036,0.178 0.082,0.484 0.134,0.925c0.053,0.44 0.107,0.941 0.16,1.503c0.052,0.563 0.096,1.144 0.132,1.742c0.036,0.6 0.053,1.161 0.053,1.69l0,17.208l4.15,0l0,-12.984c0,-1.058 0.169,-2.06 0.506,-3.01c0.338,-0.951 0.798,-1.777 1.383,-2.48c0.586,-0.704 1.277,-1.258 2.074,-1.662c0.8,-0.406 1.677,-0.608 2.636,-0.608c1.063,0 1.922,0.13 2.58,0.396c0.655,0.262 1.152,0.66 1.488,1.187c0.337,0.528 0.559,1.178 0.665,1.953c0.109,0.774 0.162,1.654 0.162,2.638l0,14.57l4.148,0zm12.471,-34.39c-0.532,-0.545 -1.152,-0.817 -1.862,-0.817c-0.745,0 -1.382,0.272 -1.915,0.817c-0.533,0.546 -0.797,1.17 -0.797,1.874c0,0.705 0.264,1.32 0.797,1.848c0.533,0.527 1.17,0.793 1.915,0.793c0.71,0 1.33,-0.266 1.862,-0.793c0.533,-0.528 0.8,-1.143 0.8,-1.848c0,-0.704 -0.267,-1.328 -0.8,-1.874m0.215,11.219l-4.257,0l0,23.172l4.257,0l0,-23.172zm10.399,0l-4.574,0l9.522,23.645l3.354,0l9.736,-23.645l-3.83,0l-6.172,16.254c-0.604,1.62 -0.941,2.833 -1.012,3.643c-0.072,-0.385 -0.177,-0.896 -0.32,-1.529c-0.141,-0.634 -0.39,-1.407 -0.744,-2.323l-5.96,-16.045zm41.022,12.296l0,-2.321c0,-1.302 -0.152,-2.595 -0.453,-3.882c-0.3,-1.283 -0.806,-2.427 -1.514,-3.429c-0.711,-1.002 -1.66,-1.812 -2.848,-2.429c-1.187,-0.614 -2.686,-0.922 -4.495,-0.922c-1.491,0 -2.884,0.298 -4.178,0.896c-1.296,0.599 -2.421,1.435 -3.38,2.507c-0.956,1.075 -1.71,2.359 -2.258,3.855c-0.552,1.496 -0.827,3.158 -0.827,4.986c0,4.047 0.94,7.11 2.821,9.186c1.879,2.076 4.664,3.115 8.354,3.115c1.915,0 3.599,-0.389 5.054,-1.161c1.453,-0.777 2.818,-1.902 4.098,-3.38l-1.651,-1.689c-1.56,1.373 -2.899,2.269 -4.017,2.693c-1.116,0.422 -2.207,0.632 -3.272,0.632c-2.342,0 -4.098,-0.747 -5.268,-2.243c-1.168,-1.494 -1.827,-3.633 -1.968,-6.414l15.802,0zm-5.506,-8.498c0.903,1.267 1.356,2.956 1.356,5.069l0,0.79l-11.547,0c0.143,-1.02 0.391,-1.995 0.747,-2.93c0.355,-0.931 0.805,-1.759 1.357,-2.481c0.549,-0.72 1.204,-1.291 1.967,-1.715c0.762,-0.422 1.625,-0.634 2.581,-0.634c1.455,0 2.635,0.634 3.539,1.901m12.849,19.373l3.936,0l0,-11.139c0,-0.774 0.027,-1.547 0.08,-2.322c0.053,-0.774 0.168,-1.513 0.347,-2.216c0.39,-1.444 0.965,-2.648 1.729,-3.616c0.762,-0.966 1.621,-1.451 2.58,-1.451c1.595,0 2.447,0.863 2.554,2.585l3.459,-1.214c-0.036,-0.773 -0.197,-1.443 -0.48,-2.004c-0.284,-0.564 -0.637,-1.012 -1.064,-1.347c-0.427,-0.334 -0.897,-0.58 -1.409,-0.739c-0.516,-0.16 -1.002,-0.237 -1.465,-0.237c-1.383,0 -2.59,0.386 -3.618,1.161c-1.029,0.774 -1.896,1.812 -2.607,3.113l-0.532,-4.011l-3.989,0.369c0.033,0.178 0.079,0.484 0.132,0.925c0.053,0.44 0.106,0.941 0.159,1.503c0.053,0.563 0.098,1.144 0.135,1.742c0.034,0.6 0.053,1.161 0.053,1.69l0,17.208zm34.236,-9.581c-0.443,-0.792 -1.009,-1.469 -1.701,-2.033c-0.693,-0.561 -1.445,-1.002 -2.261,-1.32c-0.818,-0.316 -1.615,-0.58 -2.395,-0.79c-1.455,-0.388 -2.633,-0.932 -3.539,-1.638c-0.903,-0.703 -1.356,-1.652 -1.356,-2.849c0,-0.914 0.4,-1.68 1.197,-2.296c0.798,-0.615 1.816,-0.923 3.059,-0.923c1.313,0 2.333,0.246 3.06,0.737c0.728,0.494 1.356,1.005 1.889,1.532l2.02,-2.588c-0.565,-0.491 -1.391,-0.965 -2.473,-1.422c-1.082,-0.458 -2.528,-0.687 -4.336,-0.687c-1.099,0 -2.147,0.132 -3.139,0.395c-0.993,0.264 -1.872,0.66 -2.634,1.187c-0.763,0.527 -1.375,1.197 -1.835,2.007c-0.463,0.81 -0.691,1.741 -0.691,2.797c0,1.233 0.212,2.262 0.638,3.088c0.424,0.826 0.975,1.513 1.648,2.057c0.674,0.547 1.401,0.969 2.183,1.268c0.78,0.301 1.524,0.554 2.235,0.766c1.488,0.421 2.685,0.941 3.592,1.556c0.903,0.616 1.356,1.645 1.356,3.088c0,1.233 -0.364,2.173 -1.092,2.823c-0.727,0.653 -1.765,0.978 -3.112,0.978c-0.711,0 -1.376,-0.112 -1.994,-0.344c-0.622,-0.226 -1.197,-0.518 -1.731,-0.87c-0.532,-0.352 -1.001,-0.713 -1.409,-1.081c-0.409,-0.371 -0.736,-0.714 -0.985,-1.031l-2.021,3.22c2.233,1.761 4.929,2.641 8.087,2.641c1.171,0 2.27,-0.159 3.298,-0.478c1.029,-0.315 1.915,-0.783 2.659,-1.397c0.747,-0.616 1.34,-1.38 1.783,-2.295c0.443,-0.916 0.665,-1.971 0.665,-3.168c0,-1.161 -0.222,-2.14 -0.665,-2.93m12.264,-24.809c-0.532,-0.545 -1.154,-0.817 -1.862,-0.817c-0.744,0 -1.383,0.272 -1.915,0.817c-0.532,0.546 -0.797,1.17 -0.797,1.874c0,0.705 0.265,1.32 0.797,1.848c0.532,0.527 1.171,0.793 1.915,0.793c0.708,0 1.33,-0.266 1.862,-0.793c0.532,-0.528 0.797,-1.143 0.797,-1.848c0,-0.704 -0.265,-1.328 -0.797,-1.874m0.212,11.219l-4.257,0l0,23.172l4.257,0l0,-23.172zm20.592,20.268c-0.499,0.246 -0.949,0.432 -1.356,0.554c-0.41,0.123 -0.863,0.183 -1.359,0.183c-0.284,0 -0.619,-0.052 -1.01,-0.157c-0.389,-0.105 -0.691,-0.245 -0.905,-0.424c-0.496,-0.384 -0.79,-0.859 -0.877,-1.423c-0.089,-0.564 -0.133,-1.443 -0.133,-2.64l0,-13.724l5.534,0l0,-2.637l-5.534,0l0,-6.811l-4.044,0.949l0,5.862l-3.936,0l0,2.637l3.936,0l0,14.095c0,1.194 0.043,2.226 0.132,3.086c0.09,0.862 0.364,1.592 0.826,2.191c0.497,0.668 1.143,1.145 1.943,1.424c0.797,0.282 1.639,0.425 2.526,0.425c0.923,0 1.836,-0.143 2.739,-0.425c0.906,-0.279 1.677,-0.667 2.316,-1.161l-0.798,-2.004zm26.814,0.422c-0.638,0.176 -1.257,0.263 -1.862,0.263c-0.496,0 -0.896,-0.167 -1.197,-0.502c-0.301,-0.332 -0.45,-1.029 -0.45,-2.083l0,-12.247c0,-0.422 -0.01,-0.861 -0.028,-1.319c-0.018,-0.457 -0.079,-0.915 -0.187,-1.373c-0.106,-0.457 -0.284,-0.898 -0.532,-1.32c-0.248,-0.421 -0.583,-0.792 -1.01,-1.107c-0.922,-0.705 -1.942,-1.162 -3.059,-1.373c-1.118,-0.21 -2.192,-0.316 -3.219,-0.316c-0.959,0 -1.908,0.086 -2.847,0.262c-0.94,0.179 -1.802,0.477 -2.58,0.898c-0.781,0.422 -1.446,0.977 -1.994,1.663c-0.552,0.687 -0.916,1.556 -1.092,2.614l3.245,1.054c0.106,-0.527 0.248,-1.02 0.427,-1.478c0.175,-0.455 0.45,-0.87 0.823,-1.241c0.374,-0.369 0.86,-0.658 1.463,-0.87c0.604,-0.211 1.365,-0.318 2.288,-0.318c0.496,0 0.975,0.046 1.438,0.133c0.46,0.089 0.884,0.238 1.277,0.448c0.602,0.318 1.026,0.723 1.277,1.214c0.248,0.494 0.37,1.197 0.37,2.112l0,4.012c-1.204,0 -2.242,0.019 -3.112,0.053c-0.869,0.036 -1.71,0.106 -2.526,0.212c-1.135,0.175 -2.181,0.458 -3.139,0.842c-0.959,0.389 -1.793,0.89 -2.501,1.506c-0.711,0.615 -1.27,1.345 -1.677,2.19c-0.407,0.845 -0.611,1.795 -0.611,2.85c0,1.058 0.194,1.99 0.585,2.799c0.39,0.81 0.896,1.477 1.517,2.004c0.619,0.528 1.321,0.926 2.101,1.188c0.78,0.265 1.578,0.398 2.394,0.398c1.915,0 3.467,-0.425 4.657,-1.268c1.188,-0.845 2.011,-1.811 2.474,-2.902c0.106,1.055 0.47,1.97 1.089,2.743c0.621,0.774 1.534,1.161 2.741,1.161c0.708,0 1.39,-0.069 2.048,-0.212c0.655,-0.139 1.125,-0.246 1.409,-0.315l0,-2.375zm-7.475,-6.519c-0.017,0.687 -0.063,1.364 -0.132,2.031c-0.106,0.882 -0.364,1.629 -0.772,2.245c-0.409,0.614 -0.878,1.108 -1.411,1.476c-0.53,0.372 -1.082,0.634 -1.648,0.793c-0.568,0.16 -1.048,0.237 -1.438,0.237c-0.53,0 -1.045,-0.071 -1.542,-0.21c-0.496,-0.14 -0.932,-0.371 -1.302,-0.687c-0.374,-0.318 -0.675,-0.729 -0.907,-1.24c-0.231,-0.511 -0.344,-1.152 -0.344,-1.928c0,-0.773 0.159,-1.424 0.479,-1.951c0.319,-0.53 0.708,-0.959 1.169,-1.294c0.462,-0.334 0.94,-0.59 1.438,-0.765c0.496,-0.176 0.921,-0.299 1.277,-0.369c0.426,-0.106 0.896,-0.176 1.409,-0.213c0.513,-0.033 1.012,-0.069 1.491,-0.105c0.477,-0.034 0.92,-0.053 1.329,-0.053l0.93,0c0,0.669 -0.009,1.347 -0.026,2.033m2.554,-23.805c-0.477,-0.475 -1.055,-0.714 -1.728,-0.714c-0.71,0 -1.296,0.239 -1.756,0.714c-0.462,0.474 -0.691,1.028 -0.691,1.662c0,0.634 0.229,1.187 0.691,1.662c0.46,0.475 1.046,0.713 1.756,0.713c0.673,0 1.251,-0.238 1.728,-0.713c0.479,-0.475 0.72,-1.028 0.72,-1.662c0,-0.634 -0.241,-1.188 -0.72,-1.662m-9.817,0c-0.46,-0.475 -1.046,-0.714 -1.754,-0.714c-0.675,0 -1.25,0.239 -1.729,0.714c-0.48,0.474 -0.718,1.028 -0.718,1.662c0,0.634 0.238,1.187 0.718,1.662c0.479,0.475 1.054,0.713 1.729,0.713c0.708,0 1.294,-0.238 1.754,-0.713c0.463,-0.475 0.693,-1.028 0.693,-1.662c0,-0.634 -0.23,-1.188 -0.693,-1.662m31.553,29.902c-0.499,0.246 -0.949,0.432 -1.359,0.554c-0.407,0.123 -0.86,0.183 -1.356,0.183c-0.284,0 -0.622,-0.052 -1.01,-0.157c-0.392,-0.105 -0.693,-0.245 -0.905,-0.424c-0.497,-0.384 -0.79,-0.859 -0.877,-1.423c-0.089,-0.564 -0.135,-1.443 -0.135,-2.64l0,-13.724l5.533,0l0,-2.637l-5.533,0l0,-6.811l-4.043,0.949l0,5.862l-3.938,0l0,2.637l3.938,0l0,14.095c0,1.194 0.044,2.226 0.133,3.086c0.089,0.862 0.364,1.592 0.824,2.191c0.496,0.668 1.144,1.145 1.944,1.424c0.798,0.282 1.638,0.425 2.527,0.425c0.92,0 1.836,-0.143 2.739,-0.425c0.906,-0.279 1.677,-0.667 2.315,-1.161l-0.797,-2.004z"/>
     <path id="svg_9" d="m691.21973,195.88438l0,-15.73l16.205,0l0,15.73l4.223,0l0,-32.938l-4.223,0l0,14.305l-16.205,0l0,-14.305l-4.223,0l0,32.938l4.223,0zm47.346,-10.874l0,-2.322c0,-1.301 -0.15,-2.595 -0.449,-3.879c-0.298,-1.284 -0.799,-2.428 -1.502,-3.432c-0.707,-1.003 -1.646,-1.812 -2.827,-2.429c-1.177,-0.614 -2.664,-0.922 -4.459,-0.922c-1.478,0 -2.859,0.298 -4.143,0.898c-1.286,0.598 -2.402,1.434 -3.353,2.505c-0.949,1.075 -1.698,2.359 -2.243,3.855c-0.547,1.496 -0.819,3.158 -0.819,4.986c0,4.048 0.932,7.109 2.8,9.186c1.864,2.076 4.625,3.115 8.287,3.115c1.9,0 3.569,-0.388 5.012,-1.162c1.444,-0.773 2.799,-1.9 4.067,-3.379l-1.639,-1.689c-1.549,1.373 -2.876,2.27 -3.984,2.693c-1.108,0.422 -2.19,0.634 -3.244,0.634c-2.326,0 -4.067,-0.747 -5.228,-2.245c-1.161,-1.494 -1.811,-3.633 -1.951,-6.413l15.675,0zm-5.464,-8.497c0.898,1.266 1.347,2.956 1.347,5.067l0,0.792l-11.455,0c0.142,-1.021 0.388,-1.997 0.74,-2.929c0.351,-0.933 0.799,-1.761 1.346,-2.481c0.544,-0.721 1.195,-1.294 1.954,-1.716c0.756,-0.424 1.609,-0.633 2.558,-0.633c1.443,0 2.614,0.633 3.51,1.9m16.812,-15.017c-0.527,-0.547 -1.144,-0.819 -1.847,-0.819c-0.74,0 -1.373,0.272 -1.901,0.819c-0.528,0.545 -0.79,1.171 -0.79,1.874c0,0.704 0.262,1.318 0.79,1.846c0.528,0.529 1.161,0.792 1.901,0.792c0.703,0 1.32,-0.263 1.847,-0.792c0.528,-0.528 0.793,-1.142 0.793,-1.846c0,-0.703 -0.265,-1.329 -0.793,-1.874m0.212,11.216l-4.223,0l0,23.172l4.223,0l0,-23.172zm28.291,23.172l0,-14.569c0,-1.231 -0.052,-2.41 -0.159,-3.536c-0.105,-1.125 -0.422,-2.111 -0.949,-2.957c-0.527,-0.843 -1.33,-1.52 -2.401,-2.03c-1.075,-0.511 -2.561,-0.766 -4.462,-0.766c-1.198,0 -2.243,0.185 -3.139,0.554c-0.899,0.368 -1.655,0.802 -2.272,1.293c-0.614,0.494 -1.108,0.986 -1.476,1.477c-0.371,0.494 -0.627,0.865 -0.767,1.111l-0.527,-4.014l-3.958,0.371c0.034,0.176 0.08,0.484 0.13,0.923c0.054,0.441 0.106,0.942 0.159,1.505c0.053,0.562 0.097,1.145 0.133,1.742c0.033,0.598 0.053,1.161 0.053,1.689l0,17.207l4.117,0l0,-12.984c0,-1.056 0.166,-2.06 0.501,-3.009c0.335,-0.951 0.793,-1.778 1.373,-2.481c0.581,-0.704 1.267,-1.258 2.057,-1.663c0.792,-0.404 1.664,-0.607 2.614,-0.607c1.055,0 1.908,0.133 2.56,0.395c0.651,0.266 1.142,0.661 1.477,1.188c0.335,0.528 0.554,1.181 0.66,1.954c0.106,0.773 0.159,1.655 0.159,2.638l0,14.569l4.117,0zm7.844,0l3.904,0l0,-11.137c0,-0.773 0.028,-1.549 0.08,-2.322c0.053,-0.775 0.166,-1.513 0.342,-2.218c0.388,-1.441 0.959,-2.648 1.718,-3.616c0.754,-0.966 1.609,-1.451 2.559,-1.451c1.585,0 2.427,0.863 2.534,2.585l3.429,-1.212c-0.033,-0.775 -0.192,-1.442 -0.474,-2.006c-0.281,-0.564 -0.633,-1.012 -1.055,-1.347c-0.422,-0.335 -0.889,-0.58 -1.399,-0.739c-0.511,-0.157 -0.995,-0.236 -1.45,-0.236c-1.374,0 -2.571,0.387 -3.59,1.161c-1.022,0.773 -1.884,1.811 -2.587,3.115l-0.528,-4.014l-3.958,0.371c0.034,0.176 0.078,0.484 0.13,0.923c0.053,0.441 0.106,0.942 0.159,1.505c0.053,0.562 0.096,1.145 0.132,1.742c0.034,0.598 0.054,1.161 0.054,1.689l0,17.207zm23.629,-34.388c-0.527,-0.547 -1.142,-0.819 -1.848,-0.819c-0.736,0 -1.37,0.272 -1.897,0.819c-0.529,0.545 -0.793,1.171 -0.793,1.874c0,0.704 0.264,1.318 0.793,1.846c0.527,0.529 1.161,0.792 1.897,0.792c0.706,0 1.321,-0.263 1.848,-0.792c0.53,-0.528 0.793,-1.142 0.793,-1.846c0,-0.703 -0.263,-1.329 -0.793,-1.874m0.212,11.216l-4.22299,0l0,23.172l4.22299,0l0,-23.172zm24.227,17.947c-1.3,1.231 -2.428,2.05 -3.378,2.454c-0.951,0.405 -1.969,0.608 -3.061,0.608c-1.267,0 -2.332,-0.246 -3.194,-0.74c-0.863,-0.493 -1.556,-1.161 -2.084,-2.006c-0.528,-0.843 -0.906,-1.812 -1.134,-2.903c-0.23,-1.089 -0.345,-2.216 -0.345,-3.377c0,-1.162 0.132,-2.342 0.398,-3.537c0.262,-1.197 0.676,-2.279 1.24,-3.247c0.561,-0.966 1.284,-1.759 2.163,-2.376c0.88,-0.614 1.918,-0.922 3.115,-0.922c1.337,0 2.401,0.209 3.192,0.633c0.792,0.422 1.505,0.95 2.139,1.583l2.004,-3.008c-1.018,-0.704 -2.137,-1.179 -3.351,-1.427c-1.213,-0.245 -2.401,-0.368 -3.562,-0.368c-1.795,0 -3.424,0.308 -4.884,0.922c-1.459,0.617 -2.69,1.479 -3.694,2.587c-1.003,1.109 -1.777,2.429 -2.323,3.961c-0.544,1.53 -0.817,3.211 -0.817,5.039c0,3.941 0.984,6.933 2.956,8.974c1.971,2.04 4.698,3.062 8.181,3.062c0.563,0 1.187,-0.063 1.874,-0.186c0.686,-0.123 1.381,-0.335 2.084,-0.633c0.703,-0.299 1.399,-0.721 2.086,-1.267c0.686,-0.545 1.347,-1.241 1.98,-2.084l-1.585,-1.742zm11.142,-30.661l-4.117,0l0,35.886l4.117,0l0,-12.984c0,-1.056 0.168,-2.06 0.503,-3.009c0.333,-0.951 0.79,-1.778 1.371,-2.481c0.58,-0.704 1.267,-1.258 2.06,-1.663c0.793,-0.404 1.662,-0.607 2.611,-0.607c1.058,0 1.91,0.133 2.56,0.395c0.651,0.266 1.145,0.661 1.48,1.188c0.332,0.528 0.554,1.181 0.66,1.954c0.104,0.773 0.156,1.655 0.156,2.638l0,14.569l4.118,0l0,-14.569c0,-1.231 -0.054,-2.41 -0.158,-3.536c-0.105,-1.125 -0.424,-2.111 -0.951,-2.957c-0.527,-0.843 -1.327,-1.52 -2.401,-2.03c-1.073,-0.511 -2.559,-0.766 -4.459,-0.766c-1.197,0 -2.237,0.175 -3.115,0.527c-0.879,0.352 -1.62,0.767 -2.216,1.241c-0.601,0.474 -1.082,0.959 -1.453,1.452c-0.369,0.492 -0.624,0.863 -0.766,1.109l0,-16.357zm43.918,35.886l0,-15.73l16.202,0l0,15.73l4.223,0l0,-32.938l-4.223,0l0,14.305l-16.202,0l0,-14.305l-4.224,0l0,32.938l4.224,0zm47.398,-10.874l0,-2.322c0,-1.301 -0.149,-2.595 -0.448,-3.879c-0.301,-1.284 -0.802,-2.428 -1.506,-3.432c-0.703,-1.003 -1.644,-1.812 -2.823,-2.429c-1.18,-0.614 -2.666,-0.922 -4.461,-0.922c-1.476,0 -2.859,0.298 -4.143,0.898c-1.285,0.598 -2.402,1.434 -3.351,2.505c-0.949,1.075 -1.698,2.359 -2.243,3.855c-0.547,1.496 -0.82,3.158 -0.82,4.986c0,4.048 0.933,7.109 2.797,9.186c1.866,2.076 4.628,3.115 8.287,3.115c1.901,0 3.573,-0.388 5.016,-1.162c1.443,-0.773 2.797,-1.9 4.064,-3.379l-1.636,-1.689c-1.549,1.373 -2.876,2.27 -3.985,2.693c-1.107,0.422 -2.191,0.634 -3.247,0.634c-2.322,0 -4.063,-0.747 -5.224,-2.245c-1.161,-1.494 -1.815,-3.633 -1.954,-6.413l15.677,0zm-5.463,-8.497c0.898,1.266 1.346,2.956 1.346,5.067l0,0.792l-11.454,0c0.14,-1.021 0.388,-1.997 0.739,-2.929c0.352,-0.933 0.8,-1.761 1.344,-2.481c0.547,-0.721 1.197,-1.294 1.954,-1.716c0.757,-0.424 1.612,-0.633 2.561,-0.633c1.443,0 2.614,0.633 3.51,1.9m16.436,-15.017c-0.527,-0.547 -1.144,-0.819 -1.848,-0.819c-0.739,0 -1.373,0.272 -1.9,0.819c-0.527,0.545 -0.79,1.171 -0.79,1.874c0,0.704 0.263,1.318 0.79,1.846c0.527,0.529 1.161,0.792 1.9,0.792c0.704,0 1.321,-0.263 1.848,-0.792c0.527,-0.528 0.793,-1.142 0.793,-1.846c0,-0.703 -0.266,-1.329 -0.793,-1.874m0.212,11.216l-4.223,0l0,23.172l4.223,0l0,-23.172zm28.185,23.172l0,-14.569c0,-1.231 -0.053,-2.41 -0.159,-3.536c-0.103,-1.125 -0.422,-2.111 -0.949,-2.957c-0.527,-0.843 -1.33,-1.52 -2.402,-2.03c-1.074,-0.511 -2.561,-0.766 -4.461,-0.766c-1.195,0 -2.243,0.185 -3.139,0.554c-0.898,0.368 -1.655,0.802 -2.269,1.293c-0.617,0.494 -1.111,0.986 -1.48,1.477c-0.368,0.494 -0.624,0.865 -0.766,1.111l-0.527,-4.014l-3.958,0.371c0.033,0.176 0.079,0.484 0.132,0.923c0.054,0.441 0.104,0.942 0.157,1.505c0.053,0.562 0.097,1.145 0.133,1.742c0.035,0.598 0.053,1.161 0.053,1.689l0,17.207l4.117,0l0,-12.984c0,-1.056 0.166,-2.06 0.501,-3.009c0.334,-0.951 0.792,-1.778 1.373,-2.481c0.58,-0.704 1.267,-1.258 2.06,-1.663c0.79,-0.404 1.662,-0.607 2.611,-0.607c1.055,0 1.907,0.133 2.56,0.395c0.651,0.266 1.142,0.661 1.477,1.188c0.335,0.528 0.554,1.181 0.66,1.954c0.106,0.773 0.159,1.655 0.159,2.638l0,14.569l4.117,0zm26.101,-10.874l0,-2.322c0,-1.301 -0.149,-2.595 -0.448,-3.879c-0.299,-1.284 -0.802,-2.428 -1.506,-3.432c-0.703,-1.003 -1.645,-1.812 -2.823,-2.429c-1.18,-0.614 -2.664,-0.922 -4.459,-0.922c-1.479,0 -2.86,0.298 -4.143,0.898c-1.287,0.598 -2.402,1.434 -3.353,2.505c-0.95,1.075 -1.699,2.359 -2.244,3.855c-0.546,1.496 -0.818,3.158 -0.818,4.986c0,4.048 0.932,7.109 2.799,9.186c1.864,2.076 4.625,3.115 8.287,3.115c1.898,0 3.569,-0.388 5.013,-1.162c1.443,-0.773 2.799,-1.9 4.064,-3.379l-1.636,-1.689c-1.549,1.373 -2.876,2.27 -3.985,2.693c-1.107,0.422 -2.189,0.634 -3.247,0.634c-2.322,0 -4.063,-0.747 -5.225,-2.245c-1.161,-1.494 -1.811,-3.633 -1.954,-6.413l15.678,0zm-5.464,-8.497c0.9,1.266 1.347,2.956 1.347,5.067l0,0.792l-11.454,0c0.139,-1.021 0.387,-1.997 0.739,-2.929c0.352,-0.933 0.8,-1.761 1.347,-2.481c0.544,-0.721 1.195,-1.294 1.951,-1.716c0.757,-0.424 1.611,-0.633 2.56,-0.633c1.444,0 2.615,0.633 3.51,1.9"/>
     <path id="svg_10" fill="#006ab3" d="m962.73828,331.33307l34.732,0c15.242,0 27.6,-12.324 27.6,-27.526c0,-15.206 -12.358,-27.531 -27.6,-27.531l-34.732,0l0,55.057z"/>
    </g>
   </g>
  </g>
 </g>
</svg>
